<mxfile host="Electron" agent="Mozilla/5.0 (Macintosh; Intel Mac OS X 10_15_7) AppleWebKit/537.36 (KHTML, like Gecko) draw.io/24.7.17 Chrome/128.0.6613.36 Electron/32.0.1 Safari/537.36" version="24.7.17" pages="6">
  <diagram name="Page-1" id="-H_mtQnk-PTXWXPvYvuk">
    <mxGraphModel dx="954" dy="674" grid="1" gridSize="10" guides="1" tooltips="1" connect="1" arrows="1" fold="1" page="1" pageScale="1" pageWidth="1169" pageHeight="827" math="0" shadow="0">
      <root>
        <mxCell id="0" />
        <mxCell id="1" parent="0" />
        <mxCell id="zA23MoTUsTF4_91t8viU-2" value="MongoDB" style="shape=cylinder3;whiteSpace=wrap;html=1;boundedLbl=1;backgroundOutline=1;size=15;" vertex="1" parent="1">
          <mxGeometry x="560" y="280" width="60" height="80" as="geometry" />
        </mxCell>
        <mxCell id="zA23MoTUsTF4_91t8viU-3" value="pymongo-api" style="rounded=1;whiteSpace=wrap;html=1;" vertex="1" parent="1">
          <mxGeometry x="360" y="290" width="120" height="60" as="geometry" />
        </mxCell>
        <mxCell id="zA23MoTUsTF4_91t8viU-4" style="edgeStyle=orthogonalEdgeStyle;rounded=0;orthogonalLoop=1;jettySize=auto;html=1;exitX=1;exitY=0.5;exitDx=0;exitDy=0;entryX=0;entryY=0.5;entryDx=0;entryDy=0;entryPerimeter=0;" edge="1" parent="1" source="zA23MoTUsTF4_91t8viU-3" target="zA23MoTUsTF4_91t8viU-2">
          <mxGeometry relative="1" as="geometry" />
        </mxCell>
      </root>
    </mxGraphModel>
  </diagram>
  <diagram name="mongo_shard" id="-d1KuplkpLJu7RMIcPCK">
    <mxGraphModel dx="954" dy="578" grid="1" gridSize="10" guides="1" tooltips="1" connect="1" arrows="1" fold="1" page="1" pageScale="1" pageWidth="1169" pageHeight="827" math="0" shadow="0">
      <root>
        <mxCell id="sZrbspBq5BKBNZ8zioD_-0" />
        <mxCell id="sZrbspBq5BKBNZ8zioD_-1" parent="sZrbspBq5BKBNZ8zioD_-0" />
        <mxCell id="sZrbspBq5BKBNZ8zioD_-2" value="MongoDB" style="shape=cylinder3;whiteSpace=wrap;html=1;boundedLbl=1;backgroundOutline=1;size=15;" vertex="1" parent="sZrbspBq5BKBNZ8zioD_-1">
          <mxGeometry x="720" y="220" width="60" height="80" as="geometry" />
        </mxCell>
        <mxCell id="izmtuw0Oyi2aoq3JgKSw-6" style="edgeStyle=orthogonalEdgeStyle;rounded=0;orthogonalLoop=1;jettySize=auto;html=1;entryX=0.5;entryY=0;entryDx=0;entryDy=0;" edge="1" parent="sZrbspBq5BKBNZ8zioD_-1" source="sZrbspBq5BKBNZ8zioD_-3" target="izmtuw0Oyi2aoq3JgKSw-3">
          <mxGeometry relative="1" as="geometry" />
        </mxCell>
        <mxCell id="sZrbspBq5BKBNZ8zioD_-3" value="pymongo-api" style="rounded=1;whiteSpace=wrap;html=1;" vertex="1" parent="sZrbspBq5BKBNZ8zioD_-1">
          <mxGeometry x="360" y="290" width="120" height="60" as="geometry" />
        </mxCell>
        <mxCell id="izmtuw0Oyi2aoq3JgKSw-1" value="shard1" style="rounded=1;whiteSpace=wrap;html=1;" vertex="1" parent="sZrbspBq5BKBNZ8zioD_-1">
          <mxGeometry x="490" y="520" width="120" height="60" as="geometry" />
        </mxCell>
        <mxCell id="izmtuw0Oyi2aoq3JgKSw-2" value="confserver" style="rounded=0;whiteSpace=wrap;html=1;" vertex="1" parent="sZrbspBq5BKBNZ8zioD_-1">
          <mxGeometry x="810" y="414" width="120" height="60" as="geometry" />
        </mxCell>
        <mxCell id="izmtuw0Oyi2aoq3JgKSw-8" style="edgeStyle=orthogonalEdgeStyle;rounded=0;orthogonalLoop=1;jettySize=auto;html=1;exitX=0.5;exitY=1;exitDx=0;exitDy=0;entryX=0.5;entryY=0;entryDx=0;entryDy=0;" edge="1" parent="sZrbspBq5BKBNZ8zioD_-1" source="izmtuw0Oyi2aoq3JgKSw-3" target="izmtuw0Oyi2aoq3JgKSw-4">
          <mxGeometry relative="1" as="geometry" />
        </mxCell>
        <mxCell id="izmtuw0Oyi2aoq3JgKSw-3" value="router" style="rounded=1;whiteSpace=wrap;html=1;" vertex="1" parent="sZrbspBq5BKBNZ8zioD_-1">
          <mxGeometry x="580" y="420" width="120" height="60" as="geometry" />
        </mxCell>
        <mxCell id="izmtuw0Oyi2aoq3JgKSw-10" style="edgeStyle=orthogonalEdgeStyle;rounded=0;orthogonalLoop=1;jettySize=auto;html=1;entryX=0.558;entryY=1.067;entryDx=0;entryDy=0;entryPerimeter=0;" edge="1" parent="sZrbspBq5BKBNZ8zioD_-1" source="izmtuw0Oyi2aoq3JgKSw-4" target="izmtuw0Oyi2aoq3JgKSw-2">
          <mxGeometry relative="1" as="geometry">
            <mxPoint x="890" y="420" as="targetPoint" />
          </mxGeometry>
        </mxCell>
        <mxCell id="izmtuw0Oyi2aoq3JgKSw-4" value="shard1" style="rounded=1;whiteSpace=wrap;html=1;" vertex="1" parent="sZrbspBq5BKBNZ8zioD_-1">
          <mxGeometry x="670" y="520" width="120" height="60" as="geometry" />
        </mxCell>
        <mxCell id="izmtuw0Oyi2aoq3JgKSw-9" style="edgeStyle=orthogonalEdgeStyle;rounded=0;orthogonalLoop=1;jettySize=auto;html=1;entryX=1.033;entryY=0.4;entryDx=0;entryDy=0;entryPerimeter=0;" edge="1" parent="sZrbspBq5BKBNZ8zioD_-1" source="izmtuw0Oyi2aoq3JgKSw-2" target="izmtuw0Oyi2aoq3JgKSw-3">
          <mxGeometry relative="1" as="geometry" />
        </mxCell>
        <mxCell id="izmtuw0Oyi2aoq3JgKSw-11" style="edgeStyle=orthogonalEdgeStyle;rounded=0;orthogonalLoop=1;jettySize=auto;html=1;entryX=0.567;entryY=-0.017;entryDx=0;entryDy=0;entryPerimeter=0;" edge="1" parent="sZrbspBq5BKBNZ8zioD_-1" source="izmtuw0Oyi2aoq3JgKSw-3" target="izmtuw0Oyi2aoq3JgKSw-1">
          <mxGeometry relative="1" as="geometry" />
        </mxCell>
      </root>
    </mxGraphModel>
  </diagram>
  <diagram name="mongo_shard_repl" id="NUHB4lBSou8eecv0P8cy">
    <mxGraphModel dx="954" dy="578" grid="1" gridSize="10" guides="1" tooltips="1" connect="1" arrows="1" fold="1" page="1" pageScale="1" pageWidth="1169" pageHeight="827" math="0" shadow="0">
      <root>
        <mxCell id="e3bJ2szJpr8PKuC-30HK-0" />
        <mxCell id="e3bJ2szJpr8PKuC-30HK-1" parent="e3bJ2szJpr8PKuC-30HK-0" />
        <mxCell id="e3bJ2szJpr8PKuC-30HK-2" value="MongoDB" style="shape=cylinder3;whiteSpace=wrap;html=1;boundedLbl=1;backgroundOutline=1;size=15;" vertex="1" parent="e3bJ2szJpr8PKuC-30HK-1">
          <mxGeometry x="720" y="220" width="60" height="80" as="geometry" />
        </mxCell>
        <mxCell id="e3bJ2szJpr8PKuC-30HK-3" style="edgeStyle=orthogonalEdgeStyle;rounded=0;orthogonalLoop=1;jettySize=auto;html=1;entryX=0.5;entryY=0;entryDx=0;entryDy=0;" edge="1" parent="e3bJ2szJpr8PKuC-30HK-1" source="e3bJ2szJpr8PKuC-30HK-4" target="e3bJ2szJpr8PKuC-30HK-8">
          <mxGeometry relative="1" as="geometry" />
        </mxCell>
        <mxCell id="e3bJ2szJpr8PKuC-30HK-4" value="pymongo-api" style="rounded=1;whiteSpace=wrap;html=1;" vertex="1" parent="e3bJ2szJpr8PKuC-30HK-1">
          <mxGeometry x="360" y="290" width="120" height="60" as="geometry" />
        </mxCell>
        <mxCell id="e3bJ2szJpr8PKuC-30HK-5" value="shard1" style="rounded=1;whiteSpace=wrap;html=1;" vertex="1" parent="e3bJ2szJpr8PKuC-30HK-1">
          <mxGeometry x="490" y="520" width="120" height="60" as="geometry" />
        </mxCell>
        <mxCell id="e3bJ2szJpr8PKuC-30HK-6" value="confserver" style="rounded=0;whiteSpace=wrap;html=1;" vertex="1" parent="e3bJ2szJpr8PKuC-30HK-1">
          <mxGeometry x="810" y="414" width="120" height="60" as="geometry" />
        </mxCell>
        <mxCell id="e3bJ2szJpr8PKuC-30HK-7" style="edgeStyle=orthogonalEdgeStyle;rounded=0;orthogonalLoop=1;jettySize=auto;html=1;exitX=0.5;exitY=1;exitDx=0;exitDy=0;entryX=0.5;entryY=0;entryDx=0;entryDy=0;" edge="1" parent="e3bJ2szJpr8PKuC-30HK-1" source="e3bJ2szJpr8PKuC-30HK-8" target="e3bJ2szJpr8PKuC-30HK-10">
          <mxGeometry relative="1" as="geometry" />
        </mxCell>
        <mxCell id="e3bJ2szJpr8PKuC-30HK-8" value="router" style="rounded=1;whiteSpace=wrap;html=1;" vertex="1" parent="e3bJ2szJpr8PKuC-30HK-1">
          <mxGeometry x="580" y="420" width="120" height="60" as="geometry" />
        </mxCell>
        <mxCell id="e3bJ2szJpr8PKuC-30HK-9" style="edgeStyle=orthogonalEdgeStyle;rounded=0;orthogonalLoop=1;jettySize=auto;html=1;entryX=0.558;entryY=1.067;entryDx=0;entryDy=0;entryPerimeter=0;" edge="1" parent="e3bJ2szJpr8PKuC-30HK-1" source="e3bJ2szJpr8PKuC-30HK-10" target="e3bJ2szJpr8PKuC-30HK-6">
          <mxGeometry relative="1" as="geometry">
            <mxPoint x="890" y="420" as="targetPoint" />
          </mxGeometry>
        </mxCell>
        <mxCell id="e3bJ2szJpr8PKuC-30HK-10" value="shard1" style="rounded=1;whiteSpace=wrap;html=1;" vertex="1" parent="e3bJ2szJpr8PKuC-30HK-1">
          <mxGeometry x="670" y="520" width="120" height="60" as="geometry" />
        </mxCell>
        <mxCell id="e3bJ2szJpr8PKuC-30HK-11" style="edgeStyle=orthogonalEdgeStyle;rounded=0;orthogonalLoop=1;jettySize=auto;html=1;entryX=1.033;entryY=0.4;entryDx=0;entryDy=0;entryPerimeter=0;" edge="1" parent="e3bJ2szJpr8PKuC-30HK-1" source="e3bJ2szJpr8PKuC-30HK-6" target="e3bJ2szJpr8PKuC-30HK-8">
          <mxGeometry relative="1" as="geometry" />
        </mxCell>
        <mxCell id="e3bJ2szJpr8PKuC-30HK-12" style="edgeStyle=orthogonalEdgeStyle;rounded=0;orthogonalLoop=1;jettySize=auto;html=1;entryX=0.567;entryY=-0.017;entryDx=0;entryDy=0;entryPerimeter=0;" edge="1" parent="e3bJ2szJpr8PKuC-30HK-1" source="e3bJ2szJpr8PKuC-30HK-8" target="e3bJ2szJpr8PKuC-30HK-5">
          <mxGeometry relative="1" as="geometry" />
        </mxCell>
        <mxCell id="ib5oTWSV9TDPSgViFW1k-0" value="replica" style="rounded=0;whiteSpace=wrap;html=1;" vertex="1" parent="e3bJ2szJpr8PKuC-30HK-1">
          <mxGeometry x="490" y="590" width="110" height="40" as="geometry" />
        </mxCell>
        <mxCell id="ib5oTWSV9TDPSgViFW1k-1" value="replica" style="rounded=0;whiteSpace=wrap;html=1;" vertex="1" parent="e3bJ2szJpr8PKuC-30HK-1">
          <mxGeometry x="500" y="600" width="110" height="40" as="geometry" />
        </mxCell>
        <mxCell id="ib5oTWSV9TDPSgViFW1k-2" value="replica" style="rounded=0;whiteSpace=wrap;html=1;" vertex="1" parent="e3bJ2szJpr8PKuC-30HK-1">
          <mxGeometry x="510" y="610" width="110" height="40" as="geometry" />
        </mxCell>
        <mxCell id="ib5oTWSV9TDPSgViFW1k-3" value="replica" style="rounded=0;whiteSpace=wrap;html=1;" vertex="1" parent="e3bJ2szJpr8PKuC-30HK-1">
          <mxGeometry x="660" y="590" width="110" height="40" as="geometry" />
        </mxCell>
        <mxCell id="ib5oTWSV9TDPSgViFW1k-4" value="replica" style="rounded=0;whiteSpace=wrap;html=1;" vertex="1" parent="e3bJ2szJpr8PKuC-30HK-1">
          <mxGeometry x="670" y="600" width="110" height="40" as="geometry" />
        </mxCell>
        <mxCell id="ib5oTWSV9TDPSgViFW1k-5" value="replica" style="rounded=0;whiteSpace=wrap;html=1;" vertex="1" parent="e3bJ2szJpr8PKuC-30HK-1">
          <mxGeometry x="680" y="610" width="110" height="40" as="geometry" />
        </mxCell>
      </root>
    </mxGraphModel>
  </diagram>
  <diagram name="mongo_shard_repl_redis" id="e6SGlRpfojFZaIg7sCII">
    <mxGraphModel dx="2123" dy="578" grid="1" gridSize="10" guides="1" tooltips="1" connect="1" arrows="1" fold="1" page="1" pageScale="1" pageWidth="1169" pageHeight="827" math="0" shadow="0">
      <root>
        <mxCell id="fYcgVytENwlksTvN3z8a-0" />
        <mxCell id="fYcgVytENwlksTvN3z8a-1" parent="fYcgVytENwlksTvN3z8a-0" />
        <mxCell id="fYcgVytENwlksTvN3z8a-3" style="edgeStyle=orthogonalEdgeStyle;rounded=0;orthogonalLoop=1;jettySize=auto;html=1;entryX=0.5;entryY=0;entryDx=0;entryDy=0;" edge="1" parent="fYcgVytENwlksTvN3z8a-1" source="fYcgVytENwlksTvN3z8a-4" target="fYcgVytENwlksTvN3z8a-8">
          <mxGeometry relative="1" as="geometry" />
        </mxCell>
        <mxCell id="uGoQKzfN5cOyglXJWtoU-7" style="edgeStyle=orthogonalEdgeStyle;rounded=0;orthogonalLoop=1;jettySize=auto;html=1;entryX=0.433;entryY=0.033;entryDx=0;entryDy=0;entryPerimeter=0;" edge="1" parent="fYcgVytENwlksTvN3z8a-1" source="fYcgVytENwlksTvN3z8a-4" target="uGoQKzfN5cOyglXJWtoU-9">
          <mxGeometry relative="1" as="geometry" />
        </mxCell>
        <mxCell id="fYcgVytENwlksTvN3z8a-4" value="pymongo-api" style="rounded=1;whiteSpace=wrap;html=1;" vertex="1" parent="fYcgVytENwlksTvN3z8a-1">
          <mxGeometry x="360" y="290" width="120" height="60" as="geometry" />
        </mxCell>
        <mxCell id="fYcgVytENwlksTvN3z8a-5" value="shard1" style="rounded=1;whiteSpace=wrap;html=1;" vertex="1" parent="fYcgVytENwlksTvN3z8a-1">
          <mxGeometry x="490" y="520" width="120" height="60" as="geometry" />
        </mxCell>
        <mxCell id="fYcgVytENwlksTvN3z8a-6" value="confserver" style="rounded=0;whiteSpace=wrap;html=1;" vertex="1" parent="fYcgVytENwlksTvN3z8a-1">
          <mxGeometry x="810" y="414" width="120" height="60" as="geometry" />
        </mxCell>
        <mxCell id="fYcgVytENwlksTvN3z8a-7" style="edgeStyle=orthogonalEdgeStyle;rounded=0;orthogonalLoop=1;jettySize=auto;html=1;exitX=0.5;exitY=1;exitDx=0;exitDy=0;entryX=0.5;entryY=0;entryDx=0;entryDy=0;" edge="1" parent="fYcgVytENwlksTvN3z8a-1" source="fYcgVytENwlksTvN3z8a-8" target="fYcgVytENwlksTvN3z8a-10">
          <mxGeometry relative="1" as="geometry" />
        </mxCell>
        <mxCell id="fYcgVytENwlksTvN3z8a-8" value="router" style="rounded=1;whiteSpace=wrap;html=1;" vertex="1" parent="fYcgVytENwlksTvN3z8a-1">
          <mxGeometry x="580" y="420" width="120" height="60" as="geometry" />
        </mxCell>
        <mxCell id="fYcgVytENwlksTvN3z8a-9" style="edgeStyle=orthogonalEdgeStyle;rounded=0;orthogonalLoop=1;jettySize=auto;html=1;entryX=0.558;entryY=1.067;entryDx=0;entryDy=0;entryPerimeter=0;" edge="1" parent="fYcgVytENwlksTvN3z8a-1" source="fYcgVytENwlksTvN3z8a-10" target="fYcgVytENwlksTvN3z8a-6">
          <mxGeometry relative="1" as="geometry">
            <mxPoint x="890" y="420" as="targetPoint" />
          </mxGeometry>
        </mxCell>
        <mxCell id="fYcgVytENwlksTvN3z8a-10" value="shard1" style="rounded=1;whiteSpace=wrap;html=1;" vertex="1" parent="fYcgVytENwlksTvN3z8a-1">
          <mxGeometry x="670" y="520" width="120" height="60" as="geometry" />
        </mxCell>
        <mxCell id="fYcgVytENwlksTvN3z8a-11" style="edgeStyle=orthogonalEdgeStyle;rounded=0;orthogonalLoop=1;jettySize=auto;html=1;entryX=1.033;entryY=0.4;entryDx=0;entryDy=0;entryPerimeter=0;" edge="1" parent="fYcgVytENwlksTvN3z8a-1" source="fYcgVytENwlksTvN3z8a-6" target="fYcgVytENwlksTvN3z8a-8">
          <mxGeometry relative="1" as="geometry" />
        </mxCell>
        <mxCell id="fYcgVytENwlksTvN3z8a-12" style="edgeStyle=orthogonalEdgeStyle;rounded=0;orthogonalLoop=1;jettySize=auto;html=1;entryX=0.567;entryY=-0.017;entryDx=0;entryDy=0;entryPerimeter=0;" edge="1" parent="fYcgVytENwlksTvN3z8a-1" source="fYcgVytENwlksTvN3z8a-8" target="fYcgVytENwlksTvN3z8a-5">
          <mxGeometry relative="1" as="geometry" />
        </mxCell>
        <mxCell id="fYcgVytENwlksTvN3z8a-13" value="replica" style="rounded=0;whiteSpace=wrap;html=1;" vertex="1" parent="fYcgVytENwlksTvN3z8a-1">
          <mxGeometry x="490" y="590" width="110" height="40" as="geometry" />
        </mxCell>
        <mxCell id="fYcgVytENwlksTvN3z8a-14" value="replica" style="rounded=0;whiteSpace=wrap;html=1;" vertex="1" parent="fYcgVytENwlksTvN3z8a-1">
          <mxGeometry x="500" y="600" width="110" height="40" as="geometry" />
        </mxCell>
        <mxCell id="fYcgVytENwlksTvN3z8a-15" value="replica" style="rounded=0;whiteSpace=wrap;html=1;" vertex="1" parent="fYcgVytENwlksTvN3z8a-1">
          <mxGeometry x="510" y="610" width="110" height="40" as="geometry" />
        </mxCell>
        <mxCell id="fYcgVytENwlksTvN3z8a-16" value="replica" style="rounded=0;whiteSpace=wrap;html=1;" vertex="1" parent="fYcgVytENwlksTvN3z8a-1">
          <mxGeometry x="660" y="590" width="110" height="40" as="geometry" />
        </mxCell>
        <mxCell id="fYcgVytENwlksTvN3z8a-17" value="replica" style="rounded=0;whiteSpace=wrap;html=1;" vertex="1" parent="fYcgVytENwlksTvN3z8a-1">
          <mxGeometry x="670" y="600" width="110" height="40" as="geometry" />
        </mxCell>
        <mxCell id="fYcgVytENwlksTvN3z8a-18" value="replica" style="rounded=0;whiteSpace=wrap;html=1;" vertex="1" parent="fYcgVytENwlksTvN3z8a-1">
          <mxGeometry x="680" y="610" width="110" height="40" as="geometry" />
        </mxCell>
        <mxCell id="uGoQKzfN5cOyglXJWtoU-0" value="Mongo DB" style="text;html=1;align=center;verticalAlign=middle;resizable=0;points=[];autosize=1;strokeColor=none;fillColor=none;" vertex="1" parent="fYcgVytENwlksTvN3z8a-1">
          <mxGeometry x="570" y="370" width="80" height="30" as="geometry" />
        </mxCell>
        <mxCell id="uGoQKzfN5cOyglXJWtoU-5" style="edgeStyle=orthogonalEdgeStyle;rounded=0;orthogonalLoop=1;jettySize=auto;html=1;exitX=0.5;exitY=1;exitDx=0;exitDy=0;entryX=0.5;entryY=0;entryDx=0;entryDy=0;" edge="1" parent="fYcgVytENwlksTvN3z8a-1" source="uGoQKzfN5cOyglXJWtoU-1" target="uGoQKzfN5cOyglXJWtoU-3">
          <mxGeometry relative="1" as="geometry" />
        </mxCell>
        <mxCell id="uGoQKzfN5cOyglXJWtoU-1" value="Master" style="rounded=0;whiteSpace=wrap;html=1;" vertex="1" parent="fYcgVytENwlksTvN3z8a-1">
          <mxGeometry x="120" y="490" width="120" height="60" as="geometry" />
        </mxCell>
        <mxCell id="uGoQKzfN5cOyglXJWtoU-6" style="edgeStyle=orthogonalEdgeStyle;rounded=0;orthogonalLoop=1;jettySize=auto;html=1;entryX=0.5;entryY=0;entryDx=0;entryDy=0;" edge="1" parent="fYcgVytENwlksTvN3z8a-1" source="uGoQKzfN5cOyglXJWtoU-2" target="uGoQKzfN5cOyglXJWtoU-4">
          <mxGeometry relative="1" as="geometry" />
        </mxCell>
        <mxCell id="uGoQKzfN5cOyglXJWtoU-2" value="Master" style="rounded=0;whiteSpace=wrap;html=1;" vertex="1" parent="fYcgVytENwlksTvN3z8a-1">
          <mxGeometry x="250" y="490" width="120" height="60" as="geometry" />
        </mxCell>
        <mxCell id="uGoQKzfN5cOyglXJWtoU-3" value="slave" style="rounded=1;whiteSpace=wrap;html=1;" vertex="1" parent="fYcgVytENwlksTvN3z8a-1">
          <mxGeometry x="120" y="580" width="120" height="60" as="geometry" />
        </mxCell>
        <mxCell id="uGoQKzfN5cOyglXJWtoU-4" value="slave" style="rounded=1;whiteSpace=wrap;html=1;" vertex="1" parent="fYcgVytENwlksTvN3z8a-1">
          <mxGeometry x="250" y="580" width="120" height="60" as="geometry" />
        </mxCell>
        <mxCell id="uGoQKzfN5cOyglXJWtoU-10" style="edgeStyle=orthogonalEdgeStyle;rounded=0;orthogonalLoop=1;jettySize=auto;html=1;" edge="1" parent="fYcgVytENwlksTvN3z8a-1" source="uGoQKzfN5cOyglXJWtoU-9" target="fYcgVytENwlksTvN3z8a-8">
          <mxGeometry relative="1" as="geometry" />
        </mxCell>
        <mxCell id="uGoQKzfN5cOyglXJWtoU-9" value="Redis" style="whiteSpace=wrap;html=1;" vertex="1" parent="fYcgVytENwlksTvN3z8a-1">
          <mxGeometry x="120" y="420" width="120" height="60" as="geometry" />
        </mxCell>
        <mxCell id="uGoQKzfN5cOyglXJWtoU-11" style="edgeStyle=orthogonalEdgeStyle;rounded=0;orthogonalLoop=1;jettySize=auto;html=1;entryX=0.5;entryY=0;entryDx=0;entryDy=0;" edge="1" parent="fYcgVytENwlksTvN3z8a-1" source="uGoQKzfN5cOyglXJWtoU-12" target="uGoQKzfN5cOyglXJWtoU-13">
          <mxGeometry relative="1" as="geometry" />
        </mxCell>
        <mxCell id="uGoQKzfN5cOyglXJWtoU-12" value="Master" style="rounded=0;whiteSpace=wrap;html=1;" vertex="1" parent="fYcgVytENwlksTvN3z8a-1">
          <mxGeometry x="-10" y="490" width="120" height="60" as="geometry" />
        </mxCell>
        <mxCell id="uGoQKzfN5cOyglXJWtoU-13" value="slave" style="rounded=1;whiteSpace=wrap;html=1;" vertex="1" parent="fYcgVytENwlksTvN3z8a-1">
          <mxGeometry x="-10" y="580" width="120" height="60" as="geometry" />
        </mxCell>
      </root>
    </mxGraphModel>
  </diagram>
  <diagram name="api_gateway" id="A3wsDJjxBaB01LwJDTCl">
    <mxGraphModel dx="2232" dy="696" grid="1" gridSize="10" guides="1" tooltips="1" connect="1" arrows="1" fold="1" page="1" pageScale="1" pageWidth="1169" pageHeight="827" math="0" shadow="0">
      <root>
        <mxCell id="n9KQ8TMdHLgQ0gKbIA2P-0" />
        <mxCell id="n9KQ8TMdHLgQ0gKbIA2P-1" parent="n9KQ8TMdHLgQ0gKbIA2P-0" />
        <mxCell id="n9KQ8TMdHLgQ0gKbIA2P-2" style="edgeStyle=orthogonalEdgeStyle;rounded=0;orthogonalLoop=1;jettySize=auto;html=1;entryX=0.5;entryY=0;entryDx=0;entryDy=0;" edge="1" parent="n9KQ8TMdHLgQ0gKbIA2P-1" source="GNpJK1QoDTYcJRxohqEX-3" target="n9KQ8TMdHLgQ0gKbIA2P-8">
          <mxGeometry relative="1" as="geometry" />
        </mxCell>
        <mxCell id="n9KQ8TMdHLgQ0gKbIA2P-3" style="edgeStyle=orthogonalEdgeStyle;rounded=0;orthogonalLoop=1;jettySize=auto;html=1;entryX=0.433;entryY=0.033;entryDx=0;entryDy=0;entryPerimeter=0;" edge="1" parent="n9KQ8TMdHLgQ0gKbIA2P-1" source="n9KQ8TMdHLgQ0gKbIA2P-4" target="n9KQ8TMdHLgQ0gKbIA2P-27">
          <mxGeometry relative="1" as="geometry" />
        </mxCell>
        <mxCell id="GNpJK1QoDTYcJRxohqEX-7" style="edgeStyle=orthogonalEdgeStyle;rounded=0;orthogonalLoop=1;jettySize=auto;html=1;entryX=0.25;entryY=0;entryDx=0;entryDy=0;" edge="1" parent="n9KQ8TMdHLgQ0gKbIA2P-1" source="n9KQ8TMdHLgQ0gKbIA2P-4" target="n9KQ8TMdHLgQ0gKbIA2P-8">
          <mxGeometry relative="1" as="geometry" />
        </mxCell>
        <mxCell id="GNpJK1QoDTYcJRxohqEX-16" style="edgeStyle=orthogonalEdgeStyle;rounded=0;orthogonalLoop=1;jettySize=auto;html=1;" edge="1" parent="n9KQ8TMdHLgQ0gKbIA2P-1" source="n9KQ8TMdHLgQ0gKbIA2P-4" target="GNpJK1QoDTYcJRxohqEX-11">
          <mxGeometry relative="1" as="geometry" />
        </mxCell>
        <mxCell id="n9KQ8TMdHLgQ0gKbIA2P-4" value="pymongo-api" style="rounded=1;whiteSpace=wrap;html=1;" vertex="1" parent="n9KQ8TMdHLgQ0gKbIA2P-1">
          <mxGeometry x="290" y="340" width="120" height="60" as="geometry" />
        </mxCell>
        <mxCell id="n9KQ8TMdHLgQ0gKbIA2P-5" value="shard1" style="rounded=1;whiteSpace=wrap;html=1;" vertex="1" parent="n9KQ8TMdHLgQ0gKbIA2P-1">
          <mxGeometry x="490" y="520" width="120" height="60" as="geometry" />
        </mxCell>
        <mxCell id="n9KQ8TMdHLgQ0gKbIA2P-6" value="confserver" style="rounded=0;whiteSpace=wrap;html=1;" vertex="1" parent="n9KQ8TMdHLgQ0gKbIA2P-1">
          <mxGeometry x="810" y="414" width="120" height="60" as="geometry" />
        </mxCell>
        <mxCell id="n9KQ8TMdHLgQ0gKbIA2P-7" style="edgeStyle=orthogonalEdgeStyle;rounded=0;orthogonalLoop=1;jettySize=auto;html=1;exitX=0.5;exitY=1;exitDx=0;exitDy=0;entryX=0.5;entryY=0;entryDx=0;entryDy=0;" edge="1" parent="n9KQ8TMdHLgQ0gKbIA2P-1" source="n9KQ8TMdHLgQ0gKbIA2P-8" target="n9KQ8TMdHLgQ0gKbIA2P-10">
          <mxGeometry relative="1" as="geometry" />
        </mxCell>
        <mxCell id="n9KQ8TMdHLgQ0gKbIA2P-8" value="router" style="rounded=1;whiteSpace=wrap;html=1;" vertex="1" parent="n9KQ8TMdHLgQ0gKbIA2P-1">
          <mxGeometry x="580" y="420" width="120" height="60" as="geometry" />
        </mxCell>
        <mxCell id="n9KQ8TMdHLgQ0gKbIA2P-9" style="edgeStyle=orthogonalEdgeStyle;rounded=0;orthogonalLoop=1;jettySize=auto;html=1;entryX=0.558;entryY=1.067;entryDx=0;entryDy=0;entryPerimeter=0;" edge="1" parent="n9KQ8TMdHLgQ0gKbIA2P-1" source="n9KQ8TMdHLgQ0gKbIA2P-10" target="n9KQ8TMdHLgQ0gKbIA2P-6">
          <mxGeometry relative="1" as="geometry">
            <mxPoint x="890" y="420" as="targetPoint" />
          </mxGeometry>
        </mxCell>
        <mxCell id="n9KQ8TMdHLgQ0gKbIA2P-10" value="shard1" style="rounded=1;whiteSpace=wrap;html=1;" vertex="1" parent="n9KQ8TMdHLgQ0gKbIA2P-1">
          <mxGeometry x="670" y="520" width="120" height="60" as="geometry" />
        </mxCell>
        <mxCell id="n9KQ8TMdHLgQ0gKbIA2P-11" style="edgeStyle=orthogonalEdgeStyle;rounded=0;orthogonalLoop=1;jettySize=auto;html=1;entryX=1.033;entryY=0.4;entryDx=0;entryDy=0;entryPerimeter=0;" edge="1" parent="n9KQ8TMdHLgQ0gKbIA2P-1" source="n9KQ8TMdHLgQ0gKbIA2P-6" target="n9KQ8TMdHLgQ0gKbIA2P-8">
          <mxGeometry relative="1" as="geometry" />
        </mxCell>
        <mxCell id="n9KQ8TMdHLgQ0gKbIA2P-12" style="edgeStyle=orthogonalEdgeStyle;rounded=0;orthogonalLoop=1;jettySize=auto;html=1;entryX=0.567;entryY=-0.017;entryDx=0;entryDy=0;entryPerimeter=0;" edge="1" parent="n9KQ8TMdHLgQ0gKbIA2P-1" source="n9KQ8TMdHLgQ0gKbIA2P-8" target="n9KQ8TMdHLgQ0gKbIA2P-5">
          <mxGeometry relative="1" as="geometry" />
        </mxCell>
        <mxCell id="n9KQ8TMdHLgQ0gKbIA2P-13" value="replica" style="rounded=0;whiteSpace=wrap;html=1;" vertex="1" parent="n9KQ8TMdHLgQ0gKbIA2P-1">
          <mxGeometry x="490" y="590" width="110" height="40" as="geometry" />
        </mxCell>
        <mxCell id="n9KQ8TMdHLgQ0gKbIA2P-14" value="replica" style="rounded=0;whiteSpace=wrap;html=1;" vertex="1" parent="n9KQ8TMdHLgQ0gKbIA2P-1">
          <mxGeometry x="500" y="600" width="110" height="40" as="geometry" />
        </mxCell>
        <mxCell id="n9KQ8TMdHLgQ0gKbIA2P-15" value="replica" style="rounded=0;whiteSpace=wrap;html=1;" vertex="1" parent="n9KQ8TMdHLgQ0gKbIA2P-1">
          <mxGeometry x="510" y="610" width="110" height="40" as="geometry" />
        </mxCell>
        <mxCell id="n9KQ8TMdHLgQ0gKbIA2P-16" value="replica" style="rounded=0;whiteSpace=wrap;html=1;" vertex="1" parent="n9KQ8TMdHLgQ0gKbIA2P-1">
          <mxGeometry x="660" y="590" width="110" height="40" as="geometry" />
        </mxCell>
        <mxCell id="n9KQ8TMdHLgQ0gKbIA2P-17" value="replica" style="rounded=0;whiteSpace=wrap;html=1;" vertex="1" parent="n9KQ8TMdHLgQ0gKbIA2P-1">
          <mxGeometry x="670" y="600" width="110" height="40" as="geometry" />
        </mxCell>
        <mxCell id="n9KQ8TMdHLgQ0gKbIA2P-18" value="replica" style="rounded=0;whiteSpace=wrap;html=1;" vertex="1" parent="n9KQ8TMdHLgQ0gKbIA2P-1">
          <mxGeometry x="680" y="610" width="110" height="40" as="geometry" />
        </mxCell>
        <mxCell id="n9KQ8TMdHLgQ0gKbIA2P-19" value="Mongo DB" style="text;html=1;align=center;verticalAlign=middle;resizable=0;points=[];autosize=1;strokeColor=none;fillColor=none;" vertex="1" parent="n9KQ8TMdHLgQ0gKbIA2P-1">
          <mxGeometry x="570" y="370" width="80" height="30" as="geometry" />
        </mxCell>
        <mxCell id="n9KQ8TMdHLgQ0gKbIA2P-20" style="edgeStyle=orthogonalEdgeStyle;rounded=0;orthogonalLoop=1;jettySize=auto;html=1;exitX=0.5;exitY=1;exitDx=0;exitDy=0;entryX=0.5;entryY=0;entryDx=0;entryDy=0;" edge="1" parent="n9KQ8TMdHLgQ0gKbIA2P-1" source="n9KQ8TMdHLgQ0gKbIA2P-21" target="n9KQ8TMdHLgQ0gKbIA2P-24">
          <mxGeometry relative="1" as="geometry" />
        </mxCell>
        <mxCell id="n9KQ8TMdHLgQ0gKbIA2P-21" value="Master" style="rounded=0;whiteSpace=wrap;html=1;" vertex="1" parent="n9KQ8TMdHLgQ0gKbIA2P-1">
          <mxGeometry x="120" y="490" width="120" height="60" as="geometry" />
        </mxCell>
        <mxCell id="n9KQ8TMdHLgQ0gKbIA2P-22" style="edgeStyle=orthogonalEdgeStyle;rounded=0;orthogonalLoop=1;jettySize=auto;html=1;entryX=0.5;entryY=0;entryDx=0;entryDy=0;" edge="1" parent="n9KQ8TMdHLgQ0gKbIA2P-1" source="n9KQ8TMdHLgQ0gKbIA2P-23" target="n9KQ8TMdHLgQ0gKbIA2P-25">
          <mxGeometry relative="1" as="geometry" />
        </mxCell>
        <mxCell id="n9KQ8TMdHLgQ0gKbIA2P-23" value="Master" style="rounded=0;whiteSpace=wrap;html=1;" vertex="1" parent="n9KQ8TMdHLgQ0gKbIA2P-1">
          <mxGeometry x="250" y="490" width="120" height="60" as="geometry" />
        </mxCell>
        <mxCell id="n9KQ8TMdHLgQ0gKbIA2P-24" value="slave" style="rounded=1;whiteSpace=wrap;html=1;" vertex="1" parent="n9KQ8TMdHLgQ0gKbIA2P-1">
          <mxGeometry x="120" y="580" width="120" height="60" as="geometry" />
        </mxCell>
        <mxCell id="n9KQ8TMdHLgQ0gKbIA2P-25" value="slave" style="rounded=1;whiteSpace=wrap;html=1;" vertex="1" parent="n9KQ8TMdHLgQ0gKbIA2P-1">
          <mxGeometry x="250" y="580" width="120" height="60" as="geometry" />
        </mxCell>
        <mxCell id="n9KQ8TMdHLgQ0gKbIA2P-26" style="edgeStyle=orthogonalEdgeStyle;rounded=0;orthogonalLoop=1;jettySize=auto;html=1;" edge="1" parent="n9KQ8TMdHLgQ0gKbIA2P-1" source="n9KQ8TMdHLgQ0gKbIA2P-27" target="n9KQ8TMdHLgQ0gKbIA2P-8">
          <mxGeometry relative="1" as="geometry" />
        </mxCell>
        <mxCell id="n9KQ8TMdHLgQ0gKbIA2P-27" value="Redis" style="whiteSpace=wrap;html=1;" vertex="1" parent="n9KQ8TMdHLgQ0gKbIA2P-1">
          <mxGeometry x="120" y="420" width="120" height="60" as="geometry" />
        </mxCell>
        <mxCell id="n9KQ8TMdHLgQ0gKbIA2P-28" style="edgeStyle=orthogonalEdgeStyle;rounded=0;orthogonalLoop=1;jettySize=auto;html=1;entryX=0.5;entryY=0;entryDx=0;entryDy=0;" edge="1" parent="n9KQ8TMdHLgQ0gKbIA2P-1" source="n9KQ8TMdHLgQ0gKbIA2P-29" target="n9KQ8TMdHLgQ0gKbIA2P-30">
          <mxGeometry relative="1" as="geometry" />
        </mxCell>
        <mxCell id="n9KQ8TMdHLgQ0gKbIA2P-29" value="Master" style="rounded=0;whiteSpace=wrap;html=1;" vertex="1" parent="n9KQ8TMdHLgQ0gKbIA2P-1">
          <mxGeometry x="-10" y="490" width="120" height="60" as="geometry" />
        </mxCell>
        <mxCell id="n9KQ8TMdHLgQ0gKbIA2P-30" value="slave" style="rounded=1;whiteSpace=wrap;html=1;" vertex="1" parent="n9KQ8TMdHLgQ0gKbIA2P-1">
          <mxGeometry x="-10" y="580" width="120" height="60" as="geometry" />
        </mxCell>
        <mxCell id="GNpJK1QoDTYcJRxohqEX-0" value="nginx&lt;div&gt;&lt;br&gt;&lt;/div&gt;" style="rounded=0;whiteSpace=wrap;html=1;" vertex="1" parent="n9KQ8TMdHLgQ0gKbIA2P-1">
          <mxGeometry x="370" y="60" width="120" height="60" as="geometry" />
        </mxCell>
        <mxCell id="GNpJK1QoDTYcJRxohqEX-9" style="edgeStyle=orthogonalEdgeStyle;rounded=0;orthogonalLoop=1;jettySize=auto;html=1;" edge="1" parent="n9KQ8TMdHLgQ0gKbIA2P-1" source="GNpJK1QoDTYcJRxohqEX-1" target="n9KQ8TMdHLgQ0gKbIA2P-4">
          <mxGeometry relative="1" as="geometry" />
        </mxCell>
        <mxCell id="GNpJK1QoDTYcJRxohqEX-10" style="edgeStyle=orthogonalEdgeStyle;rounded=0;orthogonalLoop=1;jettySize=auto;html=1;entryX=0.5;entryY=0;entryDx=0;entryDy=0;" edge="1" parent="n9KQ8TMdHLgQ0gKbIA2P-1" source="GNpJK1QoDTYcJRxohqEX-1" target="GNpJK1QoDTYcJRxohqEX-3">
          <mxGeometry relative="1" as="geometry" />
        </mxCell>
        <mxCell id="GNpJK1QoDTYcJRxohqEX-12" style="edgeStyle=orthogonalEdgeStyle;rounded=0;orthogonalLoop=1;jettySize=auto;html=1;" edge="1" parent="n9KQ8TMdHLgQ0gKbIA2P-1" source="GNpJK1QoDTYcJRxohqEX-1">
          <mxGeometry relative="1" as="geometry">
            <mxPoint x="720" y="170" as="targetPoint" />
          </mxGeometry>
        </mxCell>
        <mxCell id="GNpJK1QoDTYcJRxohqEX-1" value="APISIX gateway" style="rounded=1;whiteSpace=wrap;html=1;" vertex="1" parent="n9KQ8TMdHLgQ0gKbIA2P-1">
          <mxGeometry x="370" y="140" width="120" height="60" as="geometry" />
        </mxCell>
        <mxCell id="GNpJK1QoDTYcJRxohqEX-2" style="edgeStyle=orthogonalEdgeStyle;rounded=0;orthogonalLoop=1;jettySize=auto;html=1;exitX=0.5;exitY=1;exitDx=0;exitDy=0;entryX=0.558;entryY=0;entryDx=0;entryDy=0;entryPerimeter=0;" edge="1" parent="n9KQ8TMdHLgQ0gKbIA2P-1" source="GNpJK1QoDTYcJRxohqEX-0" target="GNpJK1QoDTYcJRxohqEX-1">
          <mxGeometry relative="1" as="geometry" />
        </mxCell>
        <mxCell id="GNpJK1QoDTYcJRxohqEX-8" style="edgeStyle=orthogonalEdgeStyle;rounded=0;orthogonalLoop=1;jettySize=auto;html=1;" edge="1" parent="n9KQ8TMdHLgQ0gKbIA2P-1" source="GNpJK1QoDTYcJRxohqEX-3">
          <mxGeometry relative="1" as="geometry">
            <mxPoint x="160" y="410" as="targetPoint" />
          </mxGeometry>
        </mxCell>
        <mxCell id="GNpJK1QoDTYcJRxohqEX-17" style="edgeStyle=orthogonalEdgeStyle;rounded=0;orthogonalLoop=1;jettySize=auto;html=1;entryX=0.25;entryY=1;entryDx=0;entryDy=0;" edge="1" parent="n9KQ8TMdHLgQ0gKbIA2P-1" source="GNpJK1QoDTYcJRxohqEX-3" target="GNpJK1QoDTYcJRxohqEX-11">
          <mxGeometry relative="1" as="geometry" />
        </mxCell>
        <mxCell id="GNpJK1QoDTYcJRxohqEX-3" value="pymongo-api" style="rounded=1;whiteSpace=wrap;html=1;" vertex="1" parent="n9KQ8TMdHLgQ0gKbIA2P-1">
          <mxGeometry x="430" y="280" width="120" height="60" as="geometry" />
        </mxCell>
        <mxCell id="GNpJK1QoDTYcJRxohqEX-11" value="consul" style="rounded=1;whiteSpace=wrap;html=1;" vertex="1" parent="n9KQ8TMdHLgQ0gKbIA2P-1">
          <mxGeometry x="730" y="150" width="120" height="60" as="geometry" />
        </mxCell>
      </root>
    </mxGraphModel>
  </diagram>
  <diagram name="cdn" id="5DKFMCEm6J7eNsG4e-fv">
    <mxGraphModel dx="2104" dy="671" grid="1" gridSize="10" guides="1" tooltips="1" connect="1" arrows="1" fold="1" page="1" pageScale="1" pageWidth="1169" pageHeight="827" math="0" shadow="0">
      <root>
        <mxCell id="6_-jKGCJfyXpVGXRHWbF-0" />
        <mxCell id="6_-jKGCJfyXpVGXRHWbF-1" parent="6_-jKGCJfyXpVGXRHWbF-0" />
        <mxCell id="6_-jKGCJfyXpVGXRHWbF-2" style="edgeStyle=orthogonalEdgeStyle;rounded=0;orthogonalLoop=1;jettySize=auto;html=1;entryX=0.5;entryY=0;entryDx=0;entryDy=0;" edge="1" parent="6_-jKGCJfyXpVGXRHWbF-1" source="6_-jKGCJfyXpVGXRHWbF-41" target="6_-jKGCJfyXpVGXRHWbF-10">
          <mxGeometry relative="1" as="geometry" />
        </mxCell>
        <mxCell id="6_-jKGCJfyXpVGXRHWbF-3" style="edgeStyle=orthogonalEdgeStyle;rounded=0;orthogonalLoop=1;jettySize=auto;html=1;entryX=0.433;entryY=0.033;entryDx=0;entryDy=0;entryPerimeter=0;" edge="1" parent="6_-jKGCJfyXpVGXRHWbF-1" source="6_-jKGCJfyXpVGXRHWbF-6" target="6_-jKGCJfyXpVGXRHWbF-29">
          <mxGeometry relative="1" as="geometry" />
        </mxCell>
        <mxCell id="6_-jKGCJfyXpVGXRHWbF-4" style="edgeStyle=orthogonalEdgeStyle;rounded=0;orthogonalLoop=1;jettySize=auto;html=1;entryX=0.25;entryY=0;entryDx=0;entryDy=0;" edge="1" parent="6_-jKGCJfyXpVGXRHWbF-1" source="6_-jKGCJfyXpVGXRHWbF-6" target="6_-jKGCJfyXpVGXRHWbF-10">
          <mxGeometry relative="1" as="geometry" />
        </mxCell>
        <mxCell id="6_-jKGCJfyXpVGXRHWbF-5" style="edgeStyle=orthogonalEdgeStyle;rounded=0;orthogonalLoop=1;jettySize=auto;html=1;" edge="1" parent="6_-jKGCJfyXpVGXRHWbF-1" source="6_-jKGCJfyXpVGXRHWbF-6" target="6_-jKGCJfyXpVGXRHWbF-42">
          <mxGeometry relative="1" as="geometry" />
        </mxCell>
        <mxCell id="6_-jKGCJfyXpVGXRHWbF-6" value="pymongo-api" style="rounded=1;whiteSpace=wrap;html=1;" vertex="1" parent="6_-jKGCJfyXpVGXRHWbF-1">
          <mxGeometry x="290" y="340" width="120" height="60" as="geometry" />
        </mxCell>
        <mxCell id="6_-jKGCJfyXpVGXRHWbF-7" value="shard1" style="rounded=1;whiteSpace=wrap;html=1;" vertex="1" parent="6_-jKGCJfyXpVGXRHWbF-1">
          <mxGeometry x="490" y="520" width="120" height="60" as="geometry" />
        </mxCell>
        <mxCell id="6_-jKGCJfyXpVGXRHWbF-8" value="confserver" style="rounded=0;whiteSpace=wrap;html=1;" vertex="1" parent="6_-jKGCJfyXpVGXRHWbF-1">
          <mxGeometry x="810" y="414" width="120" height="60" as="geometry" />
        </mxCell>
        <mxCell id="6_-jKGCJfyXpVGXRHWbF-9" style="edgeStyle=orthogonalEdgeStyle;rounded=0;orthogonalLoop=1;jettySize=auto;html=1;exitX=0.5;exitY=1;exitDx=0;exitDy=0;entryX=0.5;entryY=0;entryDx=0;entryDy=0;" edge="1" parent="6_-jKGCJfyXpVGXRHWbF-1" source="6_-jKGCJfyXpVGXRHWbF-10" target="6_-jKGCJfyXpVGXRHWbF-12">
          <mxGeometry relative="1" as="geometry" />
        </mxCell>
        <mxCell id="6_-jKGCJfyXpVGXRHWbF-10" value="router" style="rounded=1;whiteSpace=wrap;html=1;" vertex="1" parent="6_-jKGCJfyXpVGXRHWbF-1">
          <mxGeometry x="580" y="420" width="120" height="60" as="geometry" />
        </mxCell>
        <mxCell id="6_-jKGCJfyXpVGXRHWbF-11" style="edgeStyle=orthogonalEdgeStyle;rounded=0;orthogonalLoop=1;jettySize=auto;html=1;entryX=0.558;entryY=1.067;entryDx=0;entryDy=0;entryPerimeter=0;" edge="1" parent="6_-jKGCJfyXpVGXRHWbF-1" source="6_-jKGCJfyXpVGXRHWbF-12" target="6_-jKGCJfyXpVGXRHWbF-8">
          <mxGeometry relative="1" as="geometry">
            <mxPoint x="890" y="420" as="targetPoint" />
          </mxGeometry>
        </mxCell>
        <mxCell id="6_-jKGCJfyXpVGXRHWbF-12" value="shard1" style="rounded=1;whiteSpace=wrap;html=1;" vertex="1" parent="6_-jKGCJfyXpVGXRHWbF-1">
          <mxGeometry x="670" y="520" width="120" height="60" as="geometry" />
        </mxCell>
        <mxCell id="6_-jKGCJfyXpVGXRHWbF-13" style="edgeStyle=orthogonalEdgeStyle;rounded=0;orthogonalLoop=1;jettySize=auto;html=1;entryX=1.033;entryY=0.4;entryDx=0;entryDy=0;entryPerimeter=0;" edge="1" parent="6_-jKGCJfyXpVGXRHWbF-1" source="6_-jKGCJfyXpVGXRHWbF-8" target="6_-jKGCJfyXpVGXRHWbF-10">
          <mxGeometry relative="1" as="geometry" />
        </mxCell>
        <mxCell id="6_-jKGCJfyXpVGXRHWbF-14" style="edgeStyle=orthogonalEdgeStyle;rounded=0;orthogonalLoop=1;jettySize=auto;html=1;entryX=0.567;entryY=-0.017;entryDx=0;entryDy=0;entryPerimeter=0;" edge="1" parent="6_-jKGCJfyXpVGXRHWbF-1" source="6_-jKGCJfyXpVGXRHWbF-10" target="6_-jKGCJfyXpVGXRHWbF-7">
          <mxGeometry relative="1" as="geometry" />
        </mxCell>
        <mxCell id="6_-jKGCJfyXpVGXRHWbF-15" value="replica" style="rounded=0;whiteSpace=wrap;html=1;" vertex="1" parent="6_-jKGCJfyXpVGXRHWbF-1">
          <mxGeometry x="490" y="590" width="110" height="40" as="geometry" />
        </mxCell>
        <mxCell id="6_-jKGCJfyXpVGXRHWbF-16" value="replica" style="rounded=0;whiteSpace=wrap;html=1;" vertex="1" parent="6_-jKGCJfyXpVGXRHWbF-1">
          <mxGeometry x="500" y="600" width="110" height="40" as="geometry" />
        </mxCell>
        <mxCell id="6_-jKGCJfyXpVGXRHWbF-17" value="replica" style="rounded=0;whiteSpace=wrap;html=1;" vertex="1" parent="6_-jKGCJfyXpVGXRHWbF-1">
          <mxGeometry x="510" y="610" width="110" height="40" as="geometry" />
        </mxCell>
        <mxCell id="6_-jKGCJfyXpVGXRHWbF-18" value="replica" style="rounded=0;whiteSpace=wrap;html=1;" vertex="1" parent="6_-jKGCJfyXpVGXRHWbF-1">
          <mxGeometry x="660" y="590" width="110" height="40" as="geometry" />
        </mxCell>
        <mxCell id="6_-jKGCJfyXpVGXRHWbF-19" value="replica" style="rounded=0;whiteSpace=wrap;html=1;" vertex="1" parent="6_-jKGCJfyXpVGXRHWbF-1">
          <mxGeometry x="670" y="600" width="110" height="40" as="geometry" />
        </mxCell>
        <mxCell id="6_-jKGCJfyXpVGXRHWbF-20" value="replica" style="rounded=0;whiteSpace=wrap;html=1;" vertex="1" parent="6_-jKGCJfyXpVGXRHWbF-1">
          <mxGeometry x="680" y="610" width="110" height="40" as="geometry" />
        </mxCell>
        <mxCell id="6_-jKGCJfyXpVGXRHWbF-21" value="Mongo DB" style="text;html=1;align=center;verticalAlign=middle;resizable=0;points=[];autosize=1;strokeColor=none;fillColor=none;" vertex="1" parent="6_-jKGCJfyXpVGXRHWbF-1">
          <mxGeometry x="570" y="370" width="80" height="30" as="geometry" />
        </mxCell>
        <mxCell id="6_-jKGCJfyXpVGXRHWbF-22" style="edgeStyle=orthogonalEdgeStyle;rounded=0;orthogonalLoop=1;jettySize=auto;html=1;exitX=0.5;exitY=1;exitDx=0;exitDy=0;entryX=0.5;entryY=0;entryDx=0;entryDy=0;" edge="1" parent="6_-jKGCJfyXpVGXRHWbF-1" source="6_-jKGCJfyXpVGXRHWbF-23" target="6_-jKGCJfyXpVGXRHWbF-26">
          <mxGeometry relative="1" as="geometry" />
        </mxCell>
        <mxCell id="6_-jKGCJfyXpVGXRHWbF-23" value="Master" style="rounded=0;whiteSpace=wrap;html=1;" vertex="1" parent="6_-jKGCJfyXpVGXRHWbF-1">
          <mxGeometry x="120" y="490" width="120" height="60" as="geometry" />
        </mxCell>
        <mxCell id="6_-jKGCJfyXpVGXRHWbF-24" style="edgeStyle=orthogonalEdgeStyle;rounded=0;orthogonalLoop=1;jettySize=auto;html=1;entryX=0.5;entryY=0;entryDx=0;entryDy=0;" edge="1" parent="6_-jKGCJfyXpVGXRHWbF-1" source="6_-jKGCJfyXpVGXRHWbF-25" target="6_-jKGCJfyXpVGXRHWbF-27">
          <mxGeometry relative="1" as="geometry" />
        </mxCell>
        <mxCell id="6_-jKGCJfyXpVGXRHWbF-25" value="Master" style="rounded=0;whiteSpace=wrap;html=1;" vertex="1" parent="6_-jKGCJfyXpVGXRHWbF-1">
          <mxGeometry x="250" y="490" width="120" height="60" as="geometry" />
        </mxCell>
        <mxCell id="6_-jKGCJfyXpVGXRHWbF-26" value="slave" style="rounded=1;whiteSpace=wrap;html=1;" vertex="1" parent="6_-jKGCJfyXpVGXRHWbF-1">
          <mxGeometry x="120" y="580" width="120" height="60" as="geometry" />
        </mxCell>
        <mxCell id="6_-jKGCJfyXpVGXRHWbF-27" value="slave" style="rounded=1;whiteSpace=wrap;html=1;" vertex="1" parent="6_-jKGCJfyXpVGXRHWbF-1">
          <mxGeometry x="250" y="580" width="120" height="60" as="geometry" />
        </mxCell>
        <mxCell id="6_-jKGCJfyXpVGXRHWbF-28" style="edgeStyle=orthogonalEdgeStyle;rounded=0;orthogonalLoop=1;jettySize=auto;html=1;" edge="1" parent="6_-jKGCJfyXpVGXRHWbF-1" source="6_-jKGCJfyXpVGXRHWbF-29" target="6_-jKGCJfyXpVGXRHWbF-10">
          <mxGeometry relative="1" as="geometry" />
        </mxCell>
        <mxCell id="6_-jKGCJfyXpVGXRHWbF-29" value="Redis" style="whiteSpace=wrap;html=1;" vertex="1" parent="6_-jKGCJfyXpVGXRHWbF-1">
          <mxGeometry x="120" y="420" width="120" height="60" as="geometry" />
        </mxCell>
        <mxCell id="6_-jKGCJfyXpVGXRHWbF-30" style="edgeStyle=orthogonalEdgeStyle;rounded=0;orthogonalLoop=1;jettySize=auto;html=1;entryX=0.5;entryY=0;entryDx=0;entryDy=0;" edge="1" parent="6_-jKGCJfyXpVGXRHWbF-1" source="6_-jKGCJfyXpVGXRHWbF-31" target="6_-jKGCJfyXpVGXRHWbF-32">
          <mxGeometry relative="1" as="geometry" />
        </mxCell>
        <mxCell id="6_-jKGCJfyXpVGXRHWbF-31" value="Master" style="rounded=0;whiteSpace=wrap;html=1;" vertex="1" parent="6_-jKGCJfyXpVGXRHWbF-1">
          <mxGeometry x="-10" y="490" width="120" height="60" as="geometry" />
        </mxCell>
        <mxCell id="6_-jKGCJfyXpVGXRHWbF-32" value="slave" style="rounded=1;whiteSpace=wrap;html=1;" vertex="1" parent="6_-jKGCJfyXpVGXRHWbF-1">
          <mxGeometry x="-10" y="580" width="120" height="60" as="geometry" />
        </mxCell>
        <mxCell id="6_-jKGCJfyXpVGXRHWbF-33" value="nginx&lt;div&gt;&lt;br&gt;&lt;/div&gt;" style="rounded=0;whiteSpace=wrap;html=1;" vertex="1" parent="6_-jKGCJfyXpVGXRHWbF-1">
          <mxGeometry x="370" y="60" width="120" height="60" as="geometry" />
        </mxCell>
        <mxCell id="6_-jKGCJfyXpVGXRHWbF-34" style="edgeStyle=orthogonalEdgeStyle;rounded=0;orthogonalLoop=1;jettySize=auto;html=1;" edge="1" parent="6_-jKGCJfyXpVGXRHWbF-1" source="6_-jKGCJfyXpVGXRHWbF-37" target="6_-jKGCJfyXpVGXRHWbF-6">
          <mxGeometry relative="1" as="geometry" />
        </mxCell>
        <mxCell id="6_-jKGCJfyXpVGXRHWbF-35" style="edgeStyle=orthogonalEdgeStyle;rounded=0;orthogonalLoop=1;jettySize=auto;html=1;entryX=0.5;entryY=0;entryDx=0;entryDy=0;" edge="1" parent="6_-jKGCJfyXpVGXRHWbF-1" source="6_-jKGCJfyXpVGXRHWbF-37" target="6_-jKGCJfyXpVGXRHWbF-41">
          <mxGeometry relative="1" as="geometry" />
        </mxCell>
        <mxCell id="6_-jKGCJfyXpVGXRHWbF-36" style="edgeStyle=orthogonalEdgeStyle;rounded=0;orthogonalLoop=1;jettySize=auto;html=1;" edge="1" parent="6_-jKGCJfyXpVGXRHWbF-1" source="6_-jKGCJfyXpVGXRHWbF-37">
          <mxGeometry relative="1" as="geometry">
            <mxPoint x="720" y="170" as="targetPoint" />
          </mxGeometry>
        </mxCell>
        <mxCell id="6_-jKGCJfyXpVGXRHWbF-37" value="APISIX gateway" style="rounded=1;whiteSpace=wrap;html=1;" vertex="1" parent="6_-jKGCJfyXpVGXRHWbF-1">
          <mxGeometry x="370" y="140" width="120" height="60" as="geometry" />
        </mxCell>
        <mxCell id="6_-jKGCJfyXpVGXRHWbF-38" style="edgeStyle=orthogonalEdgeStyle;rounded=0;orthogonalLoop=1;jettySize=auto;html=1;exitX=0.5;exitY=1;exitDx=0;exitDy=0;entryX=0.558;entryY=0;entryDx=0;entryDy=0;entryPerimeter=0;" edge="1" parent="6_-jKGCJfyXpVGXRHWbF-1" source="6_-jKGCJfyXpVGXRHWbF-33" target="6_-jKGCJfyXpVGXRHWbF-37">
          <mxGeometry relative="1" as="geometry" />
        </mxCell>
        <mxCell id="6_-jKGCJfyXpVGXRHWbF-39" style="edgeStyle=orthogonalEdgeStyle;rounded=0;orthogonalLoop=1;jettySize=auto;html=1;" edge="1" parent="6_-jKGCJfyXpVGXRHWbF-1" source="6_-jKGCJfyXpVGXRHWbF-41">
          <mxGeometry relative="1" as="geometry">
            <mxPoint x="160" y="410" as="targetPoint" />
          </mxGeometry>
        </mxCell>
        <mxCell id="6_-jKGCJfyXpVGXRHWbF-40" style="edgeStyle=orthogonalEdgeStyle;rounded=0;orthogonalLoop=1;jettySize=auto;html=1;entryX=0.25;entryY=1;entryDx=0;entryDy=0;" edge="1" parent="6_-jKGCJfyXpVGXRHWbF-1" source="6_-jKGCJfyXpVGXRHWbF-41" target="6_-jKGCJfyXpVGXRHWbF-42">
          <mxGeometry relative="1" as="geometry" />
        </mxCell>
        <mxCell id="6_-jKGCJfyXpVGXRHWbF-41" value="pymongo-api" style="rounded=1;whiteSpace=wrap;html=1;" vertex="1" parent="6_-jKGCJfyXpVGXRHWbF-1">
          <mxGeometry x="430" y="280" width="120" height="60" as="geometry" />
        </mxCell>
        <mxCell id="6_-jKGCJfyXpVGXRHWbF-42" value="consul" style="rounded=1;whiteSpace=wrap;html=1;" vertex="1" parent="6_-jKGCJfyXpVGXRHWbF-1">
          <mxGeometry x="730" y="150" width="120" height="60" as="geometry" />
        </mxCell>
        <mxCell id="nQwVQVIWtYBfWjSu0CRw-0" value="CDN" style="ellipse;whiteSpace=wrap;html=1;" vertex="1" parent="6_-jKGCJfyXpVGXRHWbF-1">
          <mxGeometry x="620" y="40" width="120" height="80" as="geometry" />
        </mxCell>
        <mxCell id="nQwVQVIWtYBfWjSu0CRw-1" style="edgeStyle=orthogonalEdgeStyle;rounded=0;orthogonalLoop=1;jettySize=auto;html=1;entryX=0.008;entryY=0.625;entryDx=0;entryDy=0;entryPerimeter=0;" edge="1" parent="6_-jKGCJfyXpVGXRHWbF-1" source="6_-jKGCJfyXpVGXRHWbF-33" target="nQwVQVIWtYBfWjSu0CRw-0">
          <mxGeometry relative="1" as="geometry" />
        </mxCell>
      </root>
    </mxGraphModel>
  </diagram>
</mxfile>
